<?xml version="1.0" encoding="UTF-8"?>
<svg version="1.1" viewBox="0 0 2048 493" width="1280" height="1280" xmlns="http://www.w3.org/2000/svg">
<path transform="translate(231,61)" d="m0 0h42l9 1 9 2 14 3 27 9 26 13 14 10 13 10 15 14 11 12 3 5 1596 1 2 5 2 8 2 10 2 8 3 13 2 8 4 17 1 2 1 9 3 9 1 9 2 3 1 8 1 5 1 2v7l-639 1 23 57 1 4-1 1-975 1-7 19-11 22-8 12-12 16-27 27-17 12-14 9-17 8-15 6-11 3-10 2-5 2-10 1-2 1-16 1-2 1h-24l-1-1-16-1-3-1-10-2-3-1-8-1-8-3-7-2-19-8-17-9-14-9-16-13-10-9-7-7-10-13-9-12-9-15-6-12-8-20-5-17-2-8v-5h-2l-1-9v-53l1-1 2-14 4-16 5-15 3-7-1-6-8-12v-6l4-4 28-14 9-10 8-10 11-11 14-11 14-10 14-8 16-8 20-7 14-4 12-2 4-1h8z" fill="#FEFDFA"/>
<path transform="translate(231,61)" d="m0 0h42l9 1 9 2 14 3 27 9 26 13 14 10 13 10 15 14 11 12 3 5 1596 1 2 5 2 8 2 10 2 8 3 13 2 8 4 17 1 2 1 9 3 9 1 9 2 3 1 8 1 5 1 2v7l-639 1 23 57 1 4-1 1-975 1-7 19-11 22-8 12-12 16-27 27-17 12-14 9-17 8-15 6-11 3-10 2-5 2-10 1-2 1-16 1-2 1h-24l-1-1-16-1-3-1-10-2-3-1-8-1-8-3-7-2-19-8-17-9-14-9-16-13-10-9-7-7-10-13-9-12-9-15-6-12-8-20-5-17-2-8v-5l20 9 22 10 5 3 1 42 8 5 35 16 29 13 35 16 20 9 23 10 8-1 41-19 70-32 27-12 3-4 1-46 41-19 2-3-1-7-8-12-10-14 1-14h1597l-9-36-13-55v-4l-1558 1-143-65-7 1-21 28-16 21-7 10-5-5-14-20-16-24-6-8-5-1-12 5-26 12-61 28-15 7-2-1 10-11 8-10 11-11 14-11 14-10 14-8 16-8 20-7 14-4 12-2 4-1h8z" fill="#FEDE5E"/>
<path transform="translate(293,91)" d="m0 0 7 1 35 16 29 13 68 31 16 8 1 2v6l-10 14-10 13-27 36 3 6 11 16 16 23 10 15 1 7-5 5-37 17h-2v46l-4 5-35 16-70 32-36 16-8-1-37-17-36-16-28-13-36-16-9-5-2-2-1-42-15-7-29-13-4-2-1-9v-53l1-1 2-14 4-16 5-15 3-7-1-6-8-12v-6l4-4 16-8 19-8 41-19 33-15 31-14 6-1 5 5 8 11 16 24 10 14 3 4 9-11 14-19 10-13 12-16z" fill="#010101"/>
<path transform="translate(244,173)" d="m0 0 6 1 30 14 33 15 39 18 20 9 1 2-16 8-33 15-39 18-31 14-6-1-35-16-36-16-39-18-14-6v-2l33-15 28-13 37-17z" fill="#FEFDFB"/>
<path transform="translate(298,108)" d="m0 0 6 2 35 16 36 16 41 19 14 7-4 7-14 18-14 19-8 10-9-3-28-13-35-16-36-16-25-12 6-9 11-14 16-21 7-9z" fill="#FEFDFB"/>
<path transform="translate(107,239)" d="m0 0 6 1 28 13 36 16 41 19 22 10-2 5-12 15-8 11-16 21-3 3-37-17-36-16-39-18-18-8-1-3 14-19 16-21z" fill="#FEFDFA"/>
<path transform="translate(387,241)" d="m0 0h3l11 16 13 19 10 15v2l-27 13-88 40-9 4-4-2-8-12-11-16-14-21 2-2 33-15 39-18 33-15z" fill="#FEFDFA"/>
<path transform="translate(196,111)" d="m0 0 5 1 33 48-1 3-30 14-35 16-57 26h-4l-12-18-22-32 3-3 28-13 37-17 36-16z" fill="#FEFDFA"/>
<path transform="translate(259,320)" d="m0 0 4 4 16 24 10 14 4 4h6l14-7 36-16 33-15h2v31l-16 8-28 13-35 16-36 16-8 4h-2z" fill="#FEFCF8"/>
<path transform="translate(243,319)" d="m0 0h1v97l-9-3-105-48-16-7-1-1v-27l9 3 41 19 36 16h6l5-5 12-16 16-21z" fill="#FEFDF9"/>
<path transform="translate(629,187)" d="m0 0h24l11 17 10 16v2h2l2-5 13-21 6-9h25v49h-21l-1-29-12 21-5 8h-16l-14-24-3-5-1 29h-20l-1-1v-39z" fill="#010101"/>
<path transform="translate(1087,187)" d="m0 0h43l12 2 8 4 6 7 1 3v16l-4 8-5 4-11 4-8 1h-42z" fill="#010101"/>
<path transform="translate(959,187)" d="m0 0h24l7 10 12 19 4 5 11-18 10-16h25v49h-20l-1-26 1-4h-2l-2 5-14 24-1 1h-16l-13-23-4-6-1 29h-20z" fill="#010101"/>
<path transform="translate(1650,186)" d="m0 0h20l11 3 6 4 5 6 3 9v7l-3 9-6 7-8 4-11 2h-13l-12-2-10-6-5-8-1-3v-14l5-9 8-6z" fill="#010101"/>
<path transform="translate(1550,187)" d="m0 0h44l12 2 8 5 3 7v7l-3 7-4 3h-2v2l5 2 2 3 1 11h-19l-4-10v-2l-4-1-19-1v14h-20z" fill="#010101"/>
<path transform="translate(550,187)" d="m0 0h43l12 2 8 4 3 5 1 9-3 8-5 3-1 2 5 2 2 4 1 10h-19l-4-10-4-3-19-1v14h-20z" fill="#010101"/>
<path transform="translate(64,182)" d="m0 0 4 5 10 14 11 16 7 10-1 5-14 18-10 13-12 16-10 13h-1v-53l1-1 2-14 4-16 5-15 3-7z" fill="#FEDE5E"/>
<path transform="translate(1706,187)" d="m0 0h25l12 14 14 17 1-31h21v49h-25l-12-14-9-11-5-6v-2h-2v33h-20z" fill="#010101"/>
<path transform="translate(235,91)" d="m0 0h34l18 3 1 3-18 24-16 21-7 10-5-5-14-20-16-24-3-4v-3l12-3z" fill="#FEFDFA"/>
<path transform="translate(1276,187)" d="m0 0h56v11l-1 1h-35v8h30v10h-28l-2-1v8h38v12h-59v-47z" fill="#010101"/>
<path transform="translate(888,187)" d="m0 0h57v8l-1 4h-35v8h30v9l-1 1h-27l-2-1v8h38v12h-59z" fill="#010101"/>
<path transform="translate(1413,187)" d="m0 0h56v12h-36l1 7 30 1v9l-1 1h-29v6l38 1v12h-59z" fill="#010101"/>
<path transform="translate(762,187)" d="m0 0h20l13 20 14 22 4 7h-21l-4-7h-32l-4 7h-20l2-5 10-16 16-25z" fill="#010101"/>
<path transform="translate(1931,187)" d="m0 0h19l7 10 16 25 8 13v1h-20l-4-6v-2h-33l-2 6-1 2h-21l2-5 15-23 13-20z" fill="#010101"/>
<path transform="translate(1195,187)" d="m0 0h20l12 19 16 25 2 5h-20l-4-6v-2l-32 1-4 7h-21l8-14 10-15 12-19z" fill="#010101"/>
<path transform="translate(490,187)" d="m0 0h19l8 11 11 18 12 18v2h-20l-4-6v-2h-33l-2 6-2 2h-20l6-11 13-20 11-17z" fill="#010101"/>
<path transform="translate(1849,186)" d="m0 0h20l11 3 6 4 5 6 2 5h-22l-6-4h-11l-5 3-3 7 2 9 4 3 3 1h8l7-2 1-3h22l-2 6-6 7-8 4-11 2h-13l-12-2-8-5-6-7-2-6v-12l5-10 8-6z" fill="#010101"/>
<path transform="translate(820,187)" d="m0 0h56v12l-8 7-12 9-11 8 31 1v12h-56l-1-1v-11l18-14 13-10-30-1-1-1v-9z" fill="#010101"/>
<path transform="translate(1480,187)" d="m0 0h59v12h-19v37h-20v-37h-19l-1-1z" fill="#010101"/>
<path transform="translate(377,378)" d="m0 0 3 1-15 15-13 10-20 12-17 8-19 6-14 3-16 2h-10l3-3 39-18 70-32z" fill="#FEFCF6"/>
<path transform="translate(1346,187)" d="m0 0h20v37h37v12h-57z" fill="#010101"/>
<path transform="translate(126,380)" d="m0 0 5 1 36 16 39 18 40 18v2l-18-1-20-4-24-8-23-12-17-12-15-14z" fill="#FEFCF7"/>
<path transform="translate(555,275)" d="m0 0h13l8 11 5 8 4-5 8-12 2-2h13l1 1v27h-13l-1-14-9 14h-9l-7-10-2-6h-2v16h-12v-27z" fill="#010101"/>
<path transform="translate(1793,187)" d="m0 0h20v49h-20z" fill="#010101"/>
<path transform="translate(670,275)" d="m0 0h14l10 5 3 6v7l-4 7-6 3-4 1h-12l-9-3-4-5-1-3v-8l4-6z" fill="#010101"/>
<path transform="translate(523,275)" d="m0 0h13l10 4 4 7v7l-4 7-6 3-4 1h-12l-9-3-4-5-1-3v-7l3-6 4-3z" fill="#010101"/>
<path transform="translate(1320,275)" d="m0 0h14l9 4 4 6v9l-4 6-6 3-4 1h-11l-9-3-4-4-2-5 1-8 3-5z" fill="#010101"/>
<path transform="translate(1168,275)" d="m0 0h13l10 4 4 8-1 9-7 6-6 2h-12l-9-3-4-5-1-2v-9l4-6 5-3z" fill="#010101"/>
<path transform="translate(1113,275)" d="m0 0h19l14 2 5 4 1 7-4 6 4 8-4 2-8-1-3-6-12-2v8l-12 1z" fill="#010101"/>
<path transform="translate(1200,275)" d="m0 0h13l12 13 4 4v-16l1-1h11l1 1v27l-5 1-10-1-12-13-3-4-1 17-3 1-9-1v-27z" fill="#010101"/>
<path transform="translate(702,275)" d="m0 0h13l7 7 9 11 1-18h11l1 1v27l-3 1-12-1-10-11-4-5-2 16h-12v-27z" fill="#010101"/>
<path transform="translate(790,275)" d="m0 0h13l10 11 5 6 1-16 1-1h11l1 5-1 23-5 1-10-1-9-11-5-6-1 17h-12v-27z" fill="#010101"/>
<path transform="translate(616,275)" d="m0 0h18l14 2 4 2 2 4-1 7-3 3-5 2h-18v8h-12v-27z" fill="#010101"/>
<path transform="translate(1037,275)" d="m0 0h32l1 1v6l-1 1h-20v3h18v6h-18v4h22l1 1v6l-1 1-34-1z" fill="#010101"/>
<path transform="translate(961,275)" d="m0 0h32l1 1v6l-1 1h-20v3h17v6h-17v4h21l1 1v6h-34z" fill="#010101"/>
<path transform="translate(875,275)" d="m0 0h32v7l-1 1h-20v3h17l1 1v5h-18v4h13l9 1 1 6h-35v-27z" fill="#010101"/>
<path transform="translate(751,275)" d="m0 0h31l1 1v6l-1 1h-20v3h17l1 5-1 1h-17v4h19l3 1v6h-34v-27z" fill="#010101"/>
<path transform="translate(922,275)" d="m0 0h14l8 5 2 4h-14l-7-1v2l14 1 6 3 1 7-5 6-6 2h-12l-8-3-3-4v-3h12l1 1h7l1-2-16-1-4-2-1-2v-6l5-5z" fill="#010101"/>
<path transform="translate(1361,275)" d="m0 0h13l8 4 2 5h-20l17 3 4 5-2 7-6 4-4 1h-11l-8-3-3-3v-4h11l2 1h6l1-1-15-2-5-3-1-5 3-5z" fill="#010101"/>
<path transform="translate(1278,275)" d="m0 0h13l8 3 5 6v2h-13l-2-2h-9l-3 5 2 5 6 2 5-2 1-1h13l-2 5-5 4-6 2h-12l-9-3-4-4-1-3v-9l3-5 4-3z" fill="#010101"/>
<path transform="translate(481,275)" d="m0 0h13l9 4 3 4v3h-12l-2-2h-9l-3 3 1 7 7 2 5-2 1-1h13l-2 5-5 4-7 2h-11l-9-3-4-4-1-2v-11l3-5z" fill="#010101"/>
<path transform="translate(1107,199)" d="m0 0h19l8 4 2 4v8l-2 5-6 3-5 1h-16z" fill="#FEFCF6"/>
<path transform="translate(1654,199)" d="m0 0h12l5 3 3 6v7l-3 5-4 3-3 1h-8l-6-3-3-4-1-8 3-6z" fill="#FEFBF3"/>
<path transform="translate(1074,275)" d="m0 0h34v8h-11v20l-1 1h-10l-1-1v-20h-11z" fill="#010101"/>
<path transform="translate(836,275)" d="m0 0h33l1 1v6l-1 1h-10v20l-1 1h-11v-21h-11l-1-2z" fill="#010101"/>
<path transform="translate(1e3 275)" d="m0 0h10l1 1v20h16l5 1v6h-33v-27z" fill="#010101"/>
<path transform="translate(414,313)" d="m0 0h3l-3 11-9 20-4 7h-2v-31z" fill="#FEFAED"/>
<path transform="translate(1249,275)" d="m0 0h11v28l-4 1-8-1v-27z" fill="#010101"/>
<path transform="translate(1570,199)" d="m0 0h22l5 4-1 4-2 2-4 1h-20z" fill="#FEFBEF"/>
<path transform="translate(570,199)" d="m0 0h22l5 5-2 4-6 2h-19z" fill="#FEFBF0"/>
<path transform="translate(86,216)" d="m0 0 4 2 6 9-1 5-12 16h-2v-8l3-17z" fill="#FEFCF4"/>
<path transform="translate(1656,170)" d="m0 0h8l5 5 5 6v2h-9l-5-5-5 5h-9l2-4z" fill="#010101"/>
<path transform="translate(672,283)" d="m0 0h9l4 4-1 7-3 2h-9l-3-4 1-7z" fill="#FEDE5E"/>
<path transform="translate(1323,283)" d="m0 0h9l3 4-1 7-2 2h-9l-4-4v-5z" fill="#FEDE5E"/>
<path transform="translate(1170,283)" d="m0 0h9l3 3 1 5-4 5h-9l-3-3v-7z" fill="#FEDE5E"/>
<path transform="translate(525,283)" d="m0 0h9l3 3 1 5-4 5h-9l-3-4 1-7z" fill="#FEDE5E"/>
<path transform="translate(918,170)" d="m0 0h13l-2 5-6 7-2 1h-7l1-5z" fill="#010101"/>
<path transform="translate(1940,201)" d="m0 0 3 3 6 10v2h-17l2-5z" fill="#FEF6DA"/>
<path transform="translate(499,201)" d="m0 0 3 3 6 10v2h-17l7-14z" fill="#FEF7DB"/>
<path transform="translate(771,201)" d="m0 0h2l7 12v3h-16l2-6z" fill="#FEF7DC"/>
<path transform="translate(1204,201)" d="m0 0 4 4 5 9v2h-17l6-12z" fill="#FEF6D9"/>
<path transform="translate(1173,265)" d="m0 0 5 1 5 6v1l-7-1v-2l-4 3h-5l2-4z" fill="#010101"/>
<path transform="translate(90,320)" d="m0 0 6 1 2 2-1 14-3-4-4-10z" fill="#FEFCF7"/>
<path transform="translate(627,283)" d="m0 0h14l1 3-1 2h-14z" fill="#FEDE5E"/>
<path transform="translate(1125,283)" d="m0 0h13l2 3-2 2h-13z" fill="#FEDE5E"/>
</svg>
