<?xml version="1.0" encoding="UTF-8"?>
<svg version="1.1" xmlns="http://www.w3.org/2000/svg" width="258" height="62">
<path d="M0 0 C85.14 0 170.28 0 258 0 C258 20.46 258 40.92 258 62 C172.86 62 87.72 62 0 62 C0 41.54 0 21.08 0 0 Z " fill="#FCFCFC" transform="translate(0,0)"/>
<path d="M0 0 C3.79245637 2.64857783 6.86094673 6.2101747 8.9296875 10.34765625 C9.001361 12.8992328 9.02277192 15.42238596 8.9921875 17.97265625 C8.98767578 18.6790625 8.98316406 19.38546875 8.97851562 20.11328125 C8.96672625 21.858109 8.94879074 23.60289325 8.9296875 25.34765625 C7.9396875 25.34765625 6.9496875 25.34765625 5.9296875 25.34765625 C5.7028125 25.94578125 5.4759375 26.54390625 5.2421875 27.16015625 C3.57356966 29.94118598 1.76016383 30.82886407 -1.0703125 32.34765625 C-2.0603125 33.00765625 -3.0503125 33.66765625 -4.0703125 34.34765625 C-9.05831509 35.01169375 -13.58425443 35.30533812 -17.8828125 32.53515625 C-18.6046875 31.81328125 -19.3265625 31.09140625 -20.0703125 30.34765625 C-22.05418958 29.31604017 -24.05307906 28.31242007 -26.0703125 27.34765625 C-27.0603125 26.68765625 -28.0503125 26.02765625 -29.0703125 25.34765625 C-29.36328125 22.30859375 -29.36328125 22.30859375 -29.2578125 18.72265625 C-29.23074219 17.53414062 -29.20367188 16.345625 -29.17578125 15.12109375 C-29.14097656 14.20585937 -29.10617188 13.290625 -29.0703125 12.34765625 C-28.0803125 12.67765625 -27.0903125 13.00765625 -26.0703125 13.34765625 C-25.6578125 12.44015625 -25.2453125 11.53265625 -24.8203125 10.59765625 C-23.16934291 7.53156988 -21.72074705 5.57060135 -19.0703125 3.34765625 C-18.4103125 3.34765625 -17.7503125 3.34765625 -17.0703125 3.34765625 C-17.0703125 4.00765625 -17.0703125 4.66765625 -17.0703125 5.34765625 C-17.8746875 5.96640625 -18.6790625 6.58515625 -19.5078125 7.22265625 C-22.10095379 9.3730661 -22.72252085 10.10160083 -23.0703125 13.34765625 C-22.4103125 13.34765625 -21.7503125 13.34765625 -21.0703125 13.34765625 C-20.8021875 12.72890625 -20.5340625 12.11015625 -20.2578125 11.47265625 C-19.0703125 9.34765625 -19.0703125 9.34765625 -16.0703125 7.34765625 C-13.109375 7.01171875 -13.109375 7.01171875 -9.6953125 6.97265625 C-8.57382812 6.94429687 -7.45234375 6.9159375 -6.296875 6.88671875 C-2.40919735 7.44210127 -0.81552958 8.58760016 1.9296875 11.34765625 C3.2421875 14.59765625 3.2421875 14.59765625 3.9296875 17.34765625 C3.9296875 16.68765625 3.9296875 16.02765625 3.9296875 15.34765625 C4.5896875 14.35765625 5.2496875 13.36765625 5.9296875 12.34765625 C5.9296875 13.99765625 5.9296875 15.64765625 5.9296875 17.34765625 C6.5896875 17.34765625 7.2496875 17.34765625 7.9296875 17.34765625 C5.47789211 8.3613616 5.47789211 8.3613616 -1.015625 2.15234375 C-5.58132254 0.36425688 -10.39539806 -0.44731832 -15.16015625 0.96875 C-16.82369125 1.70380035 -18.45028927 2.52111379 -20.0703125 3.34765625 C-21.0603125 3.34765625 -22.0503125 3.34765625 -23.0703125 3.34765625 C-16.80412711 -3.88255766 -8.14369175 -4.42040855 0 0 Z " fill="#F3EA03" transform="translate(57.0703125,7.65234375)"/>
<path d="M0 0 C2.13599116 0.00850799 4.26930205 -0.02027227 6.4050293 -0.05200195 C7.77547121 -0.05361444 9.14591781 -0.05303553 10.51635742 -0.05004883 C11.75184326 -0.05190186 12.9873291 -0.05375488 14.26025391 -0.05566406 C18.35635345 0.54043285 20.50157055 1.87305074 23.70776367 4.44604492 C27.21535033 9.59050535 26.70776367 11.64443376 26.70776367 18.44604492 C10.53776367 18.44604492 -5.63223633 18.44604492 -22.29223633 18.44604492 C-22.29223633 8.95955844 -22.29223633 8.95955844 -18.29223633 3.44604492 C-12.74476394 -0.76388731 -6.63413478 -0.04037308 0 0 Z " fill="#F4EA03" transform="translate(45.292236328125,43.553955078125)"/>
<path d="M0 0 C5.20506828 3.50193932 7.10960995 6.85148168 8.6875 12.8671875 C8.6875 13.8571875 8.6875 14.8471875 8.6875 15.8671875 C8.0275 15.8671875 7.3675 15.8671875 6.6875 15.8671875 C6.3575 15.5371875 6.0275 15.2071875 5.6875 14.8671875 C5.6875 18.1671875 5.6875 21.4671875 5.6875 24.8671875 C4.6975 25.3621875 4.6975 25.3621875 3.6875 25.8671875 C3.72230469 25.22652344 3.75710937 24.58585937 3.79296875 23.92578125 C3.97674781 18.05360272 3.58522086 14.01869125 0.6875 8.8671875 C-4.20314039 5.60676057 -9.60778217 6.04537941 -15.3125 6.8671875 C-18.18319933 8.46770706 -20.23735393 10.3317363 -22.3125 12.8671875 C-22.6425 12.2071875 -22.9725 11.5471875 -23.3125 10.8671875 C-21.57852582 7.21671553 -20.11916984 5.31109675 -16.3125 3.8671875 C-16.3125 3.2071875 -16.3125 2.5471875 -16.3125 1.8671875 C-21.96092118 5.75832209 -23.67308473 9.2663839 -25.3125 15.8671875 C-25.6425 15.8671875 -25.9725 15.8671875 -26.3125 15.8671875 C-27.77341644 8.80609136 -27.77341644 8.80609136 -25.625 4.4296875 C-23.19322826 1.73502151 -22.71754371 1.35362232 -19.3125 0.8671875 C-18.28125 0.3309375 -17.25 -0.2053125 -16.1875 -0.7578125 C-10.76697792 -3.09084235 -5.25809037 -2.57575373 0 0 Z " fill="#CFCB7C" transform="translate(56.3125,9.1328125)"/>
<path d="M0 0 C0 0.66 0 1.32 0 2 C-0.804375 2.61875 -1.60875 3.2375 -2.4375 3.875 C-5.03064129 6.02540985 -5.65220835 6.75394458 -6 10 C-5.34 10 -4.68 10 -4 10 C-3.773125 9.38125 -3.54625 8.7625 -3.3125 8.125 C-1.62070165 5.38589791 -0.00755839 4.94975528 3 4 C2.04882866 5.1725131 1.08882991 6.33787015 0.125 7.5 C-0.40867187 8.1496875 -0.94234375 8.799375 -1.4921875 9.46875 C-1.98976563 9.9740625 -2.48734375 10.479375 -3 11 C-3.66 11 -4.32 11 -5 11 C-5.05429959 12.74965358 -5.09292823 14.49979787 -5.125 16.25 C-5.14820313 17.22453125 -5.17140625 18.1990625 -5.1953125 19.203125 C-4.99862781 22.0196498 -4.44568916 23.60949036 -3 26 C-6.81414312 25.4702579 -9.27004144 24.77622905 -12 22 C-12.390625 18.86328125 -12.390625 18.86328125 -12.25 15.3125 C-12.21390625 14.13300781 -12.1778125 12.95351563 -12.140625 11.73828125 C-12.09421875 10.83464844 -12.0478125 9.93101563 -12 9 C-11.01 9.33 -10.02 9.66 -9 10 C-8.5875 9.0925 -8.175 8.185 -7.75 7.25 C-3.84615385 0 -3.84615385 0 0 0 Z " fill="#CCC85A" transform="translate(40,11)"/>
<path d="M0 0 C3.79245637 2.64857783 6.86094673 6.2101747 8.9296875 10.34765625 C9.001361 12.8992328 9.02277192 15.42238596 8.9921875 17.97265625 C8.98767578 18.6790625 8.98316406 19.38546875 8.97851562 20.11328125 C8.96672625 21.858109 8.94879074 23.60289325 8.9296875 25.34765625 C7.9396875 25.01765625 6.9496875 24.68765625 5.9296875 24.34765625 C5.12890625 22.38671875 5.12890625 22.38671875 4.6171875 19.97265625 C4.43542969 19.18117188 4.25367187 18.3896875 4.06640625 17.57421875 C3.9296875 15.34765625 3.9296875 15.34765625 5.9296875 12.34765625 C5.9296875 13.99765625 5.9296875 15.64765625 5.9296875 17.34765625 C6.5896875 17.34765625 7.2496875 17.34765625 7.9296875 17.34765625 C5.47789211 8.3613616 5.47789211 8.3613616 -1.015625 2.15234375 C-5.58132254 0.36425688 -10.39539806 -0.44731832 -15.16015625 0.96875 C-16.82369125 1.70380035 -18.45028927 2.52111379 -20.0703125 3.34765625 C-21.0603125 3.34765625 -22.0503125 3.34765625 -23.0703125 3.34765625 C-16.80412711 -3.88255766 -8.14369175 -4.42040855 0 0 Z " fill="#D6CF2E" transform="translate(57.0703125,7.65234375)"/>
<path d="M0 0 C4.20985682 1.92028557 5.57301712 2.99076775 7.375 7.25 C7.58125 8.1575 7.7875 9.065 8 10 C7.34 10 6.68 10 6 10 C5.401875 9.175 4.80375 8.35 4.1875 7.5 C1.35441684 4.54851934 -1.38869904 4.4818377 -5.375 4.3125 C-11.04020965 4.4989825 -14.02674843 5.60909279 -17.92578125 9.6875 C-18.28027344 10.120625 -18.63476562 10.55375 -19 11 C-19.33 10.34 -19.66 9.68 -20 9 C-16.06636882 0.20717736 -8.82162168 -1.28457493 0 0 Z " fill="#F6F5F1" transform="translate(53,11)"/>
<path d="M0 0 C5.94 0 11.88 0 18 0 C17.67 1.32 17.34 2.64 17 4 C17.33 4.99 17.66 5.98 18 7 C15.03 7 12.06 7 9 7 C9 5.35 9 3.7 9 2 C8.01 2 7.02 2 6 2 C6 3.65 6 5.3 6 7 C4.68 7 3.36 7 2 7 C2 5.35 2 3.7 2 2 C1.34 2 0.68 2 0 2 C0 1.34 0 0.68 0 0 Z " fill="#1C1C1C" transform="translate(145,14)"/>
<path d="M0 0 C2.64 0 5.28 0 8 0 C8 2.97 8 5.94 8 9 C5.36 9 2.72 9 0 9 C0 6.03 0 3.06 0 0 Z " fill="#3D3D3D" transform="translate(116,26)"/>
<path d="M0 0 C2.64 0 5.28 0 8 0 C8.625 2.375 8.625 2.375 9 5 C7 7 7 7 4 7.25 C1 7 1 7 -1 5 C-0.625 2.375 -0.625 2.375 0 0 Z " fill="#515151" transform="translate(225,14)"/>
<path d="M0 0 C4.875 0.875 4.875 0.875 6 2 C6.33 1.34 6.66 0.68 7 0 C8.32 0 9.64 0 11 0 C11 2.31 11 4.62 11 7 C8.625 7.1875 8.625 7.1875 6 7 C5.34 6.01 4.68 5.02 4 4 C3.67 4.99 3.34 5.98 3 7 C2.01 7 1.02 7 0 7 C0 4.69 0 2.38 0 0 Z " fill="#323232" transform="translate(197,14)"/>
<path d="M0 0 C6.75 -0.125 6.75 -0.125 9 1 C8.125 5.875 8.125 5.875 7 7 C4.0625 7.1875 4.0625 7.1875 1 7 C0.34 6.34 -0.32 5.68 -1 5 C-0.625 2.375 -0.625 2.375 0 0 Z " fill="#505050" transform="translate(124,14)"/>
<path d="M0 0 C2.97 0 5.94 0 9 0 C10 4.75 10 4.75 10 7 C9.01 7 8.02 7 7 7 C7 6.34 7 5.68 7 5 C5.68 5 4.36 5 3 5 C3 5.66 3 6.32 3 7 C2.01 7 1.02 7 0 7 C0 4.69 0 2.38 0 0 Z " fill="#343434" transform="translate(134,14)"/>
<path d="M0 0 C0 0.66 0 1.32 0 2 C-0.804375 2.556875 -1.60875 3.11375 -2.4375 3.6875 C-5.74890819 6.67584398 -5.44249238 8.69922693 -6 13 C-8.0625 14.4375 -8.0625 14.4375 -10 15 C-10 16.98 -10 18.96 -10 21 C-9.34 21.33 -8.68 21.66 -8 22 C-9.32 22 -10.64 22 -12 22 C-12 17.71 -12 13.42 -12 9 C-11.01 9.33 -10.02 9.66 -9 10 C-8.5875 9.0925 -8.175 8.185 -7.75 7.25 C-3.84615385 0 -3.84615385 0 0 0 Z " fill="#E3DC2B" transform="translate(40,11)"/>
<path d="M0 0 C4.26959677 2.13479838 5.0582132 2.83902828 7 7 C7.6875 10.8125 7.6875 10.8125 8 14 C7.34 14 6.68 14 6 14 C5.67 13.67 5.34 13.34 5 13 C5 16.3 5 19.6 5 23 C4.34 23.33 3.68 23.66 3 24 C3.01160156 23.32453125 3.02320313 22.6490625 3.03515625 21.953125 C3.04417969 21.06109375 3.05320313 20.1690625 3.0625 19.25 C3.07990234 17.92742188 3.07990234 17.92742188 3.09765625 16.578125 C3.00826198 14.2181162 2.66912821 12.25501476 2 10 C2.66 10 3.32 10 4 10 C2.68 6.7 1.36 3.4 0 0 Z " fill="#C1BD5D" transform="translate(57,11)"/>
<path d="M0 0 C2.97 0 5.94 0 9 0 C9.33 1.32 9.66 2.64 10 4 C9 5 9 5 5.9375 5.0625 C4.968125 5.041875 3.99875 5.02125 3 5 C3 5.66 3 6.32 3 7 C2.01 7 1.02 7 0 7 C0 4.69 0 2.38 0 0 Z " fill="#3E3E3E" transform="translate(112,14)"/>
<path d="M0 0 C1.134375 0.020625 2.26875 0.04125 3.4375 0.0625 C4.37173645 3.07281744 4.48199911 3.92900268 3.4375 7.0625 C1.1275 7.0625 -1.1825 7.0625 -3.5625 7.0625 C-3.94383299 5.0710944 -4.27575582 3.06970923 -4.5625 1.0625 C-3.5625 0.0625 -3.5625 0.0625 0 0 Z " fill="#292929" transform="translate(96.5625,13.9375)"/>
<path d="M0 0 C1.134375 0.020625 2.26875 0.04125 3.4375 0.0625 C3.7675 0.7225 4.0975 1.3825 4.4375 2.0625 C2.4575 2.0625 0.4775 2.0625 -1.5625 2.0625 C-1.5625 3.0525 -1.5625 4.0425 -1.5625 5.0625 C0.4175 4.7325 2.3975 4.4025 4.4375 4.0625 C4.1075 5.0525 3.7775 6.0425 3.4375 7.0625 C0.0625 7.1875 0.0625 7.1875 -3.5625 7.0625 C-4.2225 6.4025 -4.8825 5.7425 -5.5625 5.0625 C-4.90400312 0.71642062 -4.57278902 0.08022437 0 0 Z " fill="#252525" transform="translate(218.5625,13.9375)"/>
<path d="M0 0 C0.99 0 1.98 0 3 0 C3 1.65 3 3.3 3 5 C3.99 5 4.98 5 6 5 C6 3.35 6 1.7 6 0 C6.99 0 7.98 0 9 0 C9.04254356 1.99954746 9.04080783 4.00041636 9 6 C8 7 8 7 4.5 7.125 C1 7 1 7 0 6 C-0.04080783 4.00041636 -0.04254356 1.99954746 0 0 Z " fill="#111111" transform="translate(102,14)"/>
<path d="M0 0 C3.3 0 6.6 0 10 0 C10 2.31 10 4.62 10 7 C9.67 7 9.34 7 9 7 C9 5.35 9 3.7 9 2 C8.01 2 7.02 2 6 2 C6 3.65 6 5.3 6 7 C4.68 7 3.36 7 2 7 C2 5.35 2 3.7 2 2 C1.34 2 0.68 2 0 2 C0 1.34 0 0.68 0 0 Z " fill="#404040" transform="translate(145,14)"/>
<path d="M0 0 C2.64 0 5.28 0 8 0 C8 0.33 8 0.66 8 1 C6.35 1 4.7 1 3 1 C3 1.66 3 2.32 3 3 C4.65 3 6.3 3 8 3 C8.33 4.32 8.66 5.64 9 7 C6.03 7 3.06 7 0 7 C0 4.69 0 2.38 0 0 Z " fill="#131313" transform="translate(176,14)"/>
<path d="M0 0 C1.32 0 2.64 0 4 0 C4 2.64 4 5.28 4 8 C2.0625 8.5625 2.0625 8.5625 0 9 C-1 8 -1 8 -1.125 4.5 C-1 1 -1 1 0 0 Z " fill="#393939" transform="translate(170,26)"/>
<path d="M0 0 C2.475 0.495 2.475 0.495 5 1 C5 3.31 5 5.62 5 8 C3.0625 8.5625 3.0625 8.5625 1 9 C0 8 0 8 -0.09765625 6.15234375 C-0.06510417 4.1015625 -0.03255208 2.05078125 0 0 Z " fill="#282828" transform="translate(199,26)"/>
<path d="M0 0 C1.32 0 2.64 0 4 0 C4 2.97 4 5.94 4 9 C2.35 9 0.7 9 -1 9 C-0.67 6.03 -0.34 3.06 0 0 Z " fill="#383838" transform="translate(143,26)"/>
<path d="M0 0 C1.32 0 2.64 0 4 0 C4 2.97 4 5.94 4 9 C2.35 9 0.7 9 -1 9 C-0.67 6.03 -0.34 3.06 0 0 Z " fill="#383838" transform="translate(193,26)"/>
<path d="M0 0 C1.134375 0.020625 2.26875 0.04125 3.4375 0.0625 C3.7675 0.7225 4.0975 1.3825 4.4375 2.0625 C2.4575 2.0625 0.4775 2.0625 -1.5625 2.0625 C-1.5625 3.0525 -1.5625 4.0425 -1.5625 5.0625 C0.4175 5.0625 2.3975 5.0625 4.4375 5.0625 C4.1075 5.7225 3.7775 6.3825 3.4375 7.0625 C1.10455225 7.10491723 -1.22952567 7.10342937 -3.5625 7.0625 C-4.5625 6.0625 -4.5625 6.0625 -4.6875 3.5625 C-4.4904197 -0.37910609 -4.10054684 0.07193942 0 0 Z " fill="#161616" transform="translate(190.5625,13.9375)"/>
<path d="M0 0 C2.475 0.495 2.475 0.495 5 1 C5 3.31 5 5.62 5 8 C3.68 8.33 2.36 8.66 1 9 C0.08941469 5.92677456 -0.08886184 3.19902639 0 0 Z " fill="#424242" transform="translate(132,26)"/>
<path d="M0 0 C1.32 0 2.64 0 4 0 C3.67 1.65 3.34 3.3 3 5 C3.66 5 4.32 5 5 5 C4.67 7.31 4.34 9.62 4 12 C3.01 11.67 2.02 11.34 1 11 C-0.28317892 7.15046324 -0.06643637 4.05261865 0 0 Z " fill="#232323" transform="translate(186,26)"/>
<path d="M0 0 C1.32 0 2.64 0 4 0 C4 2.97 4 5.94 4 9 C2.68 9 1.36 9 0 9 C0 6.03 0 3.06 0 0 Z " fill="#262626" transform="translate(153,26)"/>
<path d="M0 0 C1.32 0 2.64 0 4 0 C4 2.64 4 5.28 4 8 C2.68 8.33 1.36 8.66 0 9 C0 6.03 0 3.06 0 0 Z " fill="#2B2B2B" transform="translate(126,26)"/>
<path d="M0 0 C1.32 0 2.64 0 4 0 C4 2.97 4 5.94 4 9 C2.68 9 1.36 9 0 9 C0 6.03 0 3.06 0 0 Z " fill="#212121" transform="translate(110,26)"/>
<path d="M0 0 C1.32 0 2.64 0 4 0 C4 3 4 6 4 9 C2.68 9 1.36 9 0 9 C0 6.03 0 3.06 0 0 Z " fill="#2A2A2A" transform="translate(176,26)"/>
<path d="M0 0 C1.32 0 2.64 0 4 0 C4 3 4 6 4 9 C2.68 9 1.36 9 0 9 C0 6.03 0 3.06 0 0 Z " fill="#292929" transform="translate(98,26)"/>
<path d="M0 0 C0.33 0 0.66 0 1 0 C1 1.65 1 3.3 1 5 C1.66 5 2.32 5 3 5 C3.33 4.01 3.66 3.02 4 2 C4 5.63 4 9.26 4 13 C3.01 12.67 2.02 12.34 1 12 C0.234375 10.0390625 0.234375 10.0390625 -0.25 7.625 C-0.42015625 6.83351563 -0.5903125 6.04203125 -0.765625 5.2265625 C-1 3 -1 3 0 0 Z " fill="#E5DD21" transform="translate(62,20)"/>
<path d="M0 0 C2.475 0.495 2.475 0.495 5 1 C4.67 2.32 4.34 3.64 4 5 C3.34 5 2.68 5 2 5 C2 6.32 2 7.64 2 9 C1.34 9 0.68 9 0 9 C0 6.03 0 3.06 0 0 Z " fill="#252525" transform="translate(163,26)"/>
<path d="M0 0 C1.32 0 2.64 0 4 0 C4 1.65 4 3.3 4 5 C3.34 5 2.68 5 2 5 C2 5.66 2 6.32 2 7 C2.66 7 3.32 7 4 7 C4 7.66 4 8.32 4 9 C2.68 9 1.36 9 0 9 C0 6.03 0 3.06 0 0 Z " fill="#222222" transform="translate(92,26)"/>
<path d="M0 0 C0 2.31 0 4.62 0 7 C-2.64 6.34 -5.28 5.68 -8 5 C-8 4.01 -8 3.02 -8 2 C-1.125 0 -1.125 0 0 0 Z " fill="#D2D2D2" transform="translate(197,14)"/>
<path d="M0 0 C2.475 0.495 2.475 0.495 5 1 C5 4 5 4 3 7 C2.01 7 1.02 7 0 7 C0 4.69 0 2.38 0 0 Z " fill="#101010" transform="translate(197,14)"/>
<path d="M0 0 C0.66 0.33 1.32 0.66 2 1 C1.05125 1.78375 0.1025 2.5675 -0.875 3.375 C-4.8523213 7.2772775 -5.38464919 11.63159467 -6 17 C-6.33 17 -6.66 17 -7 17 C-7.45236462 10.55380413 -6.72205782 7.31722545 -3 2 C-2.01 1.34 -1.02 0.68 0 0 Z " fill="#CAC548" transform="translate(30,45)"/>
<path d="M0 0 C2.64 0 5.28 0 8 0 C7.01 0.33 6.02 0.66 5 1 C5 2.98 5 4.96 5 7 C4.01 7 3.02 7 2 7 C2 5.02 2 3.04 2 1 C1.34 0.67 0.68 0.34 0 0 Z " fill="#0D0D0D" transform="translate(167,14)"/>
<path d="M0 0 C2.31 0 4.62 0 7 0 C5.68 0.33 4.36 0.66 3 1 C3 2.98 3 4.96 3 7 C2.01 7 1.02 7 0 7 C0 4.69 0 2.38 0 0 Z " fill="#0D0D0D" transform="translate(134,14)"/>
<path d="M0 0 C2.31 0 4.62 0 7 0 C5.68 0.33 4.36 0.66 3 1 C3 2.98 3 4.96 3 7 C2.01 7 1.02 7 0 7 C0 4.69 0 2.38 0 0 Z " fill="#151515" transform="translate(112,14)"/>
<path d="M0 0 C6.40141012 -0.51211281 9.98010898 -0.11888494 15 4 C14.67 4.66 14.34 5.32 14 6 C13.49210937 5.72285156 12.98421875 5.44570312 12.4609375 5.16015625 C8.2922702 2.9665317 4.75868447 1.47586845 0 1 C0 0.67 0 0.34 0 0 Z " fill="#DCD519" transform="translate(44,9)"/>
<path d="M0 0 C2 2 2 2 2 5 C-0.31 5 -2.62 5 -5 5 C-5 3.68 -5 2.36 -5 1 C-2.625 0.375 -2.625 0.375 0 0 Z " fill="#B6B6B6" transform="translate(184,14)"/>
<path d="M0 0 C1.32 0 2.64 0 4 0 C3.67 2.97 3.34 5.94 3 9 C2.34 9 1.68 9 1 9 C0.67 6.03 0.34 3.06 0 0 Z " fill="#191919" transform="translate(104,26)"/>
<path d="M0 0 C0.99 0 1.98 0 3 0 C3 2.97 3 5.94 3 9 C2.34 9 1.68 9 1 9 C0.67 6.03 0.34 3.06 0 0 Z " fill="#272727" transform="translate(121,26)"/>
<path d="M0 0 C0.99 0 1.98 0 3 0 C2.67 2.97 2.34 5.94 2 9 C1.34 9 0.68 9 0 9 C0 6.03 0 3.06 0 0 Z " fill="#2D2D2D" transform="translate(116,26)"/>
<path d="M0 0 C0.66 0.33 1.32 0.66 2 1 C1.0479279 2.00596297 0.08812654 3.00461563 -0.875 4 C-1.40867187 4.556875 -1.94234375 5.11375 -2.4921875 5.6875 C-4 7 -4 7 -6 7 C-6.33 7.99 -6.66 8.98 -7 10 C-7 8.68 -7 7.36 -7 6 C-6.34 6 -5.68 6 -5 6 C-4.731875 5.38125 -4.46375 4.7625 -4.1875 4.125 C-3 2 -3 2 0 0 Z " fill="#CBC432" transform="translate(41,15)"/>
<path d="M0 0 C0.99 0 1.98 0 3 0 C3 2.31 3 4.62 3 7 C2.01 7 1.02 7 0 7 C0 4.69 0 2.38 0 0 Z " fill="#050505" transform="translate(209,14)"/>
<path d="M0 0 C0.99 0 1.98 0 3 0 C3.66 1.98 4.32 3.96 5 6 C3.68 5.67 2.36 5.34 1 5 C0.67 3.35 0.34 1.7 0 0 Z " fill="#0B0B0B" transform="translate(123,15)"/>
<path d="M0 0 C0.99 0 1.98 0 3 0 C2.67 1.65 2.34 3.3 2 5 C0.68 5.33 -0.64 5.66 -2 6 C-1.34 4.02 -0.68 2.04 0 0 Z " fill="#0B0B0B" transform="translate(231,15)"/>
<path d="M0 0 C0.33 0 0.66 0 1 0 C1.33 2.64 1.66 5.28 2 8 C0.68 7.67 -0.64 7.34 -2 7 C-1.34 4.69 -0.68 2.38 0 0 Z " fill="#525252" transform="translate(201,27)"/>
<path d="M0 0 C1.65 0 3.3 0 5 0 C4.34 0.66 3.68 1.32 3 2 C3.66 2.66 4.32 3.32 5 4 C3.35 4 1.7 4 0 4 C0 2.68 0 1.36 0 0 Z " fill="#111111" transform="translate(93,14)"/>
</svg>
